<svg xmlns="http://www.w3.org/2000/svg" viewBox="0 0 1000 220" role="img" aria-labelledby="title desc">
  <title id="title">Lê Hữu Phúc — Quantum Computing and Applied Machine Learning</title>
  <desc id="desc">An original navy banner with blue, violet and cyan waves, circuit lines and a wireframe sphere.</desc>
  <defs>
    <linearGradient id="background" x2="1" y2="1"><stop stop-color="#0b1224"/><stop offset="1" stop-color="#1e2450"/></linearGradient>
    <linearGradient id="wave"><stop stop-color="#60a5fa"/><stop offset=".55" stop-color="#a78bfa"/><stop offset="1" stop-color="#67e8f9"/></linearGradient>
  </defs>
  <rect width="1000" height="220" rx="14" fill="url(#background)"/>
  <path d="M0 217H1000" stroke="url(#wave)" stroke-width="6"/>
  <g fill="none" stroke="#a5b4fc" stroke-width="1" opacity=".12">
    <path d="M650 0V220M700 0V220M750 0V220M800 0V220M850 0V220M900 0V220M950 0V220M620 30H1000M620 70H1000M620 110H1000M620 150H1000M620 190H1000"/>
  </g>
  <text x="40" y="40" fill="#67e8f9" font-family="Segoe UI,Arial,sans-serif" font-size="11" font-weight="600" letter-spacing="2.5">QUANTUM / LEARNING / RESEARCH</text>
  <text x="40" y="92" fill="#f8fafc" font-family="Segoe UI,Arial,sans-serif" font-size="36" font-weight="700">Lê Hữu Phúc</text>
  <text x="40" y="128" fill="#e0e7ff" font-family="Segoe UI,Arial,sans-serif" font-size="21">Quantum Computing &amp; Applied Machine Learning</text>
  <text x="40" y="166" fill="#cbd5e1" font-family="Segoe UI,Arial,sans-serif" font-size="14">Research code. Scientific questions. Practical systems.</text>
  <g fill="none" stroke="url(#wave)" stroke-width="2" opacity=".85">
    <path d="M670 82C700 30 715 30 745 82S790 134 820 82S865 30 895 82S940 134 970 82"/>
    <path d="M670 82C700 134 715 134 745 82S790 30 820 82S865 134 895 82S940 30 970 82" opacity=".45"/>
  </g>
  <g fill="none" stroke="#a5b4fc" stroke-width="1.5" opacity=".75">
    <circle cx="884" cy="161" r="32"/>
    <ellipse cx="884" cy="161" rx="32" ry="11"/>
    <ellipse cx="884" cy="161" rx="13" ry="32" transform="rotate(25 884 161)"/>
    <path d="M884 129V193M852 161H916M678 151H808M678 177H808"/>
    <rect x="704" y="141" width="22" height="20" rx="3" fill="#172554"/>
    <rect x="766" y="167" width="22" height="20" rx="3" fill="#172554"/>
    <path d="M777 151V177"/>
    <circle cx="777" cy="151" r="3" fill="#67e8f9" stroke="none"/>
    <path d="M715 146V156M710 151H720M772 177H782"/>
  </g>
</svg>
